<mxfile host="Electron" modified="2025-03-20T19:55:01.157Z" agent="Mozilla/5.0 (Macintosh; Intel Mac OS X 10_15_7) AppleWebKit/537.36 (KHTML, like Gecko) draw.io/24.2.5 Chrome/120.0.6099.109 Electron/28.1.0 Safari/537.36" etag="IJdLrWvgiiyLWZR57Ze5" version="24.2.5" type="device">
  <diagram name="Page-1" id="ShMDCKniUP-cdcsQFPmj">
    <mxGraphModel dx="1114" dy="775" grid="1" gridSize="10" guides="1" tooltips="1" connect="1" arrows="1" fold="1" page="1" pageScale="1" pageWidth="850" pageHeight="1100" math="0" shadow="0">
      <root>
        <mxCell id="0" />
        <mxCell id="1" parent="0" />
        <mxCell id="YrfqTWabhQCqnrUzDYz0-15" value="" style="rounded=1;whiteSpace=wrap;html=1;" vertex="1" parent="1">
          <mxGeometry x="160" y="40" width="90" height="680" as="geometry" />
        </mxCell>
        <mxCell id="YrfqTWabhQCqnrUzDYz0-1" value="" style="rounded=1;whiteSpace=wrap;html=1;" vertex="1" parent="1">
          <mxGeometry x="20" y="40" width="90" height="680" as="geometry" />
        </mxCell>
        <mxCell id="YrfqTWabhQCqnrUzDYz0-5" value="User" style="sketch=0;pointerEvents=1;shadow=0;dashed=0;html=1;strokeColor=none;fillColor=#505050;labelPosition=center;verticalLabelPosition=bottom;verticalAlign=top;outlineConnect=0;align=center;shape=mxgraph.office.users.user;" vertex="1" parent="1">
          <mxGeometry x="42" y="70" width="46" height="50" as="geometry" />
        </mxCell>
        <mxCell id="YrfqTWabhQCqnrUzDYz0-6" value="Input" style="shape=mxgraph.bpmn.data;labelPosition=center;verticalLabelPosition=bottom;align=center;verticalAlign=top;size=15;html=1;bpmnTransferType=input;" vertex="1" parent="1">
          <mxGeometry x="45" y="190" width="40" height="60" as="geometry" />
        </mxCell>
        <mxCell id="YrfqTWabhQCqnrUzDYz0-7" value="Output" style="shape=mxgraph.bpmn.data;labelPosition=center;verticalLabelPosition=bottom;align=center;verticalAlign=top;size=15;html=1;bpmnTransferType=output;" vertex="1" parent="1">
          <mxGeometry x="45" y="480" width="40" height="60" as="geometry" />
        </mxCell>
        <mxCell id="YrfqTWabhQCqnrUzDYz0-8" value="" style="rounded=1;whiteSpace=wrap;html=1;" vertex="1" parent="1">
          <mxGeometry x="439.02" y="40" width="620.98" height="465" as="geometry" />
        </mxCell>
        <mxCell id="YrfqTWabhQCqnrUzDYz0-9" value="Agent" style="sketch=0;pointerEvents=1;shadow=0;dashed=0;html=1;strokeColor=none;fillColor=#505050;labelPosition=center;verticalLabelPosition=bottom;verticalAlign=top;outlineConnect=0;align=center;shape=mxgraph.office.concepts.service_application;" vertex="1" parent="1">
          <mxGeometry x="790" y="213" width="59" height="48" as="geometry" />
        </mxCell>
        <mxCell id="YrfqTWabhQCqnrUzDYz0-10" value="" style="sketch=0;pointerEvents=1;shadow=0;dashed=0;html=1;strokeColor=none;fillColor=#505050;labelPosition=center;verticalLabelPosition=bottom;verticalAlign=top;outlineConnect=0;align=center;shape=mxgraph.office.concepts.application_android;" vertex="1" parent="1">
          <mxGeometry x="174.5" y="279" width="60" height="51" as="geometry" />
        </mxCell>
        <mxCell id="YrfqTWabhQCqnrUzDYz0-11" value="" style="sketch=0;pointerEvents=1;shadow=0;dashed=0;html=1;strokeColor=none;fillColor=#505050;labelPosition=center;verticalLabelPosition=bottom;verticalAlign=top;outlineConnect=0;align=center;shape=mxgraph.office.concepts.application_web;" vertex="1" parent="1">
          <mxGeometry x="176.5" y="220" width="56" height="49" as="geometry" />
        </mxCell>
        <mxCell id="YrfqTWabhQCqnrUzDYz0-12" value="" style="sketch=0;pointerEvents=1;shadow=0;dashed=0;html=1;strokeColor=none;fillColor=#505050;labelPosition=center;verticalLabelPosition=bottom;verticalAlign=top;outlineConnect=0;align=center;shape=mxgraph.office.concepts.application_windows;" vertex="1" parent="1">
          <mxGeometry x="176.5" y="340" width="59" height="47" as="geometry" />
        </mxCell>
        <mxCell id="YrfqTWabhQCqnrUzDYz0-13" value="" style="sketch=0;pointerEvents=1;shadow=0;dashed=0;html=1;strokeColor=none;fillColor=#505050;labelPosition=center;verticalLabelPosition=bottom;verticalAlign=top;outlineConnect=0;align=center;shape=mxgraph.office.concepts.application_ios;" vertex="1" parent="1">
          <mxGeometry x="176.5" y="400" width="59" height="49" as="geometry" />
        </mxCell>
        <mxCell id="YrfqTWabhQCqnrUzDYz0-14" value="" style="sketch=0;pointerEvents=1;shadow=0;dashed=0;html=1;strokeColor=none;fillColor=#505050;labelPosition=center;verticalLabelPosition=bottom;verticalAlign=top;outlineConnect=0;align=center;shape=mxgraph.office.communications.ucwa_application;" vertex="1" parent="1">
          <mxGeometry x="176.5" y="460" width="53" height="40" as="geometry" />
        </mxCell>
        <mxCell id="YrfqTWabhQCqnrUzDYz0-16" value="Apps / CLI" style="text;html=1;align=center;verticalAlign=middle;resizable=0;points=[];autosize=1;strokeColor=none;fillColor=none;" vertex="1" parent="1">
          <mxGeometry x="166" y="60" width="80" height="30" as="geometry" />
        </mxCell>
        <mxCell id="YrfqTWabhQCqnrUzDYz0-17" value="Cloud" style="ellipse;shape=cloud;whiteSpace=wrap;html=1;" vertex="1" parent="1">
          <mxGeometry x="396.02" y="10" width="120" height="80" as="geometry" />
        </mxCell>
        <mxCell id="YrfqTWabhQCqnrUzDYz0-18" value="" style="rounded=1;whiteSpace=wrap;html=1;" vertex="1" parent="1">
          <mxGeometry x="299.02" y="540" width="760.98" height="181" as="geometry" />
        </mxCell>
        <mxCell id="YrfqTWabhQCqnrUzDYz0-20" value="Data Sources" style="text;html=1;align=center;verticalAlign=middle;resizable=0;points=[];autosize=1;strokeColor=none;fillColor=none;" vertex="1" parent="1">
          <mxGeometry x="314.02" y="551" width="100" height="30" as="geometry" />
        </mxCell>
        <mxCell id="YrfqTWabhQCqnrUzDYz0-22" value="Data Lake" style="image;sketch=0;aspect=fixed;html=1;points=[];align=center;fontSize=12;image=img/lib/mscae/Data_Lake.svg;" vertex="1" parent="1">
          <mxGeometry x="358.77" y="596.38" width="49.02" height="64.5" as="geometry" />
        </mxCell>
        <mxCell id="YrfqTWabhQCqnrUzDYz0-23" value="Data Warehouse" style="image;aspect=fixed;html=1;points=[];align=center;fontSize=12;image=img/lib/azure2/integration/SQL_Data_Warehouses.svg;" vertex="1" parent="1">
          <mxGeometry x="458.77" y="596.38" width="64" height="65" as="geometry" />
        </mxCell>
        <mxCell id="YrfqTWabhQCqnrUzDYz0-25" value="Database" style="image;sketch=0;aspect=fixed;html=1;points=[];align=center;fontSize=12;image=img/lib/mscae/Database_General.svg;" vertex="1" parent="1">
          <mxGeometry x="568.77" y="596.38" width="51.46" height="67.71" as="geometry" />
        </mxCell>
        <mxCell id="YrfqTWabhQCqnrUzDYz0-26" value="File Storage" style="image;aspect=fixed;html=1;points=[];align=center;fontSize=12;image=img/lib/azure2/general/Storage_Azure_Files.svg;" vertex="1" parent="1">
          <mxGeometry x="648.77" y="603.9699999999999" width="74" height="60.13" as="geometry" />
        </mxCell>
        <mxCell id="YrfqTWabhQCqnrUzDYz0-32" value="&lt;font color=&quot;#000000&quot;&gt;Message Bus&lt;/font&gt;" style="image;aspect=fixed;perimeter=ellipsePerimeter;html=1;align=center;shadow=0;dashed=0;fontColor=#4277BB;labelBackgroundColor=default;fontSize=12;spacingTop=3;image=img/lib/ibm/blockchain/message_bus.svg;" vertex="1" parent="1">
          <mxGeometry x="758.77" y="601.38" width="60" height="60" as="geometry" />
        </mxCell>
        <mxCell id="YrfqTWabhQCqnrUzDYz0-34" value="" style="rounded=1;whiteSpace=wrap;html=1;" vertex="1" parent="1">
          <mxGeometry x="299.02" y="40" width="90" height="460" as="geometry" />
        </mxCell>
        <mxCell id="YrfqTWabhQCqnrUzDYz0-35" value="Protocols" style="text;html=1;align=center;verticalAlign=middle;resizable=0;points=[];autosize=1;strokeColor=none;fillColor=none;" vertex="1" parent="1">
          <mxGeometry x="309.02" y="60" width="70" height="30" as="geometry" />
        </mxCell>
        <mxCell id="YrfqTWabhQCqnrUzDYz0-36" value="L4" style="sketch=0;aspect=fixed;pointerEvents=1;shadow=0;dashed=0;html=1;strokeColor=none;labelPosition=center;verticalLabelPosition=bottom;verticalAlign=top;align=center;fillColor=#00188D;shape=mxgraph.mscae.enterprise.protocol_stack" vertex="1" parent="1">
          <mxGeometry x="319.02" y="120" width="50" height="34" as="geometry" />
        </mxCell>
        <mxCell id="YrfqTWabhQCqnrUzDYz0-37" value="L6" style="sketch=0;aspect=fixed;pointerEvents=1;shadow=0;dashed=0;html=1;strokeColor=none;labelPosition=center;verticalLabelPosition=bottom;verticalAlign=top;align=center;fillColor=#00188D;shape=mxgraph.mscae.enterprise.protocol_stack" vertex="1" parent="1">
          <mxGeometry x="319.02" y="203" width="50" height="34" as="geometry" />
        </mxCell>
        <mxCell id="YrfqTWabhQCqnrUzDYz0-38" value="L7" style="sketch=0;aspect=fixed;pointerEvents=1;shadow=0;dashed=0;html=1;strokeColor=none;labelPosition=center;verticalLabelPosition=bottom;verticalAlign=top;align=center;fillColor=#00188D;shape=mxgraph.mscae.enterprise.protocol_stack" vertex="1" parent="1">
          <mxGeometry x="319.02" y="287.5" width="50" height="34" as="geometry" />
        </mxCell>
        <mxCell id="YrfqTWabhQCqnrUzDYz0-39" value="" style="rounded=1;whiteSpace=wrap;html=1;" vertex="1" parent="1">
          <mxGeometry x="484.02" y="80" width="90" height="390" as="geometry" />
        </mxCell>
        <mxCell id="YrfqTWabhQCqnrUzDYz0-40" value="Network&lt;div&gt;(Ingress / Egress)&lt;/div&gt;" style="text;html=1;align=center;verticalAlign=middle;resizable=0;points=[];autosize=1;strokeColor=none;fillColor=none;" vertex="1" parent="1">
          <mxGeometry x="469.02" y="95" width="120" height="40" as="geometry" />
        </mxCell>
        <mxCell id="YrfqTWabhQCqnrUzDYz0-41" value="Load Balancer" style="sketch=0;aspect=fixed;pointerEvents=1;shadow=0;dashed=0;html=1;strokeColor=none;labelPosition=center;verticalLabelPosition=bottom;verticalAlign=top;align=center;fillColor=#00188D;shape=mxgraph.azure.load_balancer_generic" vertex="1" parent="1">
          <mxGeometry x="511.02" y="152" width="37" height="50" as="geometry" />
        </mxCell>
        <mxCell id="YrfqTWabhQCqnrUzDYz0-42" value="Service Mesh" style="editableCssRules=.*;html=1;shape=image;verticalLabelPosition=bottom;labelBackgroundColor=#ffffff;verticalAlign=top;aspect=fixed;imageAspect=0;image=data:image/svg+xml,PHN2ZyB4bWxucz0iaHR0cDovL3d3dy53My5vcmcvMjAwMC9zdmciIHhtbG5zOnY9Imh0dHBzOi8vdmVjdGEuaW8vbmFubyIgd2lkdGg9IjE2MCIgaGVpZ2h0PSIyNDAiIHZpZXdCb3g9IjAgMCAxNjAgMjQwIj4mI3hhOwk8c3R5bGUgdHlwZT0idGV4dC9jc3MiPiYjeGE7CS5zdDB7ZmlsbDojNDY2YmIwO30mI3hhOwk8L3N0eWxlPiYjeGE7CTxwYXRoIGNsYXNzPSJzdDAiIGQ9Ik02MCAyNDBMMCAyMTBoMTYwem0wLTE2MEwwIDIwMGw2MC0xMHpNNzAgMHYxOTBsOTAgMTB6Ii8+JiN4YTs8L3N2Zz4=;fontColor=default;" vertex="1" parent="1">
          <mxGeometry x="516.02" y="250" width="26" height="40" as="geometry" />
        </mxCell>
        <mxCell id="YrfqTWabhQCqnrUzDYz0-43" value="Router" style="sketch=0;pointerEvents=1;shadow=0;dashed=0;html=1;strokeColor=none;fillColor=#434445;aspect=fixed;labelPosition=center;verticalLabelPosition=bottom;verticalAlign=top;align=center;outlineConnect=0;shape=mxgraph.vvd.physical_upstream_router;" vertex="1" parent="1">
          <mxGeometry x="504.02" y="340" width="50" height="50" as="geometry" />
        </mxCell>
        <mxCell id="YrfqTWabhQCqnrUzDYz0-44" value="" style="rounded=1;whiteSpace=wrap;html=1;" vertex="1" parent="1">
          <mxGeometry x="624.02" y="80" width="90" height="390" as="geometry" />
        </mxCell>
        <mxCell id="YrfqTWabhQCqnrUzDYz0-45" value="Authentication&amp;nbsp;&lt;div&gt;/ Authorization&lt;/div&gt;" style="text;html=1;align=center;verticalAlign=middle;resizable=0;points=[];autosize=1;strokeColor=none;fillColor=none;" vertex="1" parent="1">
          <mxGeometry x="619.02" y="95" width="100" height="40" as="geometry" />
        </mxCell>
        <mxCell id="YrfqTWabhQCqnrUzDYz0-46" value="JWT" style="outlineConnect=0;dashed=0;verticalLabelPosition=bottom;verticalAlign=top;align=center;html=1;shape=mxgraph.aws3.add_on;fillColor=#759C3E;gradientColor=none;" vertex="1" parent="1">
          <mxGeometry x="643.27" y="139.5" width="50.5" height="30" as="geometry" />
        </mxCell>
        <mxCell id="YrfqTWabhQCqnrUzDYz0-47" value="Cert Mgmt" style="outlineConnect=0;dashed=0;verticalLabelPosition=bottom;verticalAlign=top;align=center;html=1;shape=mxgraph.aws3.certificate_manager_2;fillColor=#759C3E;gradientColor=none;" vertex="1" parent="1">
          <mxGeometry x="637.52" y="204" width="61" height="56" as="geometry" />
        </mxCell>
        <mxCell id="YrfqTWabhQCqnrUzDYz0-48" value="Vault" style="sketch=0;outlineConnect=0;fontColor=#232F3E;gradientColor=none;strokeColor=#232F3E;fillColor=#ffffff;dashed=0;verticalLabelPosition=bottom;verticalAlign=top;align=center;html=1;fontSize=12;fontStyle=0;aspect=fixed;shape=mxgraph.aws4.resourceIcon;resIcon=mxgraph.aws4.vault;" vertex="1" parent="1">
          <mxGeometry x="638.52" y="290" width="60" height="60" as="geometry" />
        </mxCell>
        <mxCell id="YrfqTWabhQCqnrUzDYz0-49" value="&lt;font color=&quot;#000000&quot;&gt;IAM / ACL&lt;/font&gt;" style="image;aspect=fixed;perimeter=ellipsePerimeter;html=1;align=center;shadow=0;dashed=0;fontColor=#4277BB;labelBackgroundColor=default;fontSize=12;spacingTop=3;image=img/lib/ibm/security/identity_access_management.svg;" vertex="1" parent="1">
          <mxGeometry x="639.02" y="380" width="60" height="60" as="geometry" />
        </mxCell>
        <mxCell id="YrfqTWabhQCqnrUzDYz0-52" value="Vector DB" style="shape=datastore;whiteSpace=wrap;html=1;" vertex="1" parent="1">
          <mxGeometry x="920" y="430" width="90" height="45" as="geometry" />
        </mxCell>
        <mxCell id="YrfqTWabhQCqnrUzDYz0-53" value="Embedding" style="html=1;dashed=0;whiteSpace=wrap;" vertex="1" parent="1">
          <mxGeometry x="770" y="420" width="100" height="50" as="geometry" />
        </mxCell>
        <mxCell id="YrfqTWabhQCqnrUzDYz0-54" value="Memory" style="image;sketch=0;aspect=fixed;html=1;points=[];align=center;fontSize=12;image=img/lib/mscae/Azure_Cache_for_Redis.svg;" vertex="1" parent="1">
          <mxGeometry x="793.77" y="80" width="50" height="50" as="geometry" />
        </mxCell>
        <mxCell id="YrfqTWabhQCqnrUzDYz0-55" value="RAG" style="html=1;dashed=0;whiteSpace=wrap;" vertex="1" parent="1">
          <mxGeometry x="910" y="325.5" width="100" height="50" as="geometry" />
        </mxCell>
        <mxCell id="YrfqTWabhQCqnrUzDYz0-56" value="LLM" style="html=1;dashed=0;whiteSpace=wrap;" vertex="1" parent="1">
          <mxGeometry x="770" y="325.5" width="100" height="50" as="geometry" />
        </mxCell>
        <mxCell id="YrfqTWabhQCqnrUzDYz0-57" value="Tools" style="html=1;dashed=0;whiteSpace=wrap;" vertex="1" parent="1">
          <mxGeometry x="909.5" y="211" width="100" height="50" as="geometry" />
        </mxCell>
        <mxCell id="YrfqTWabhQCqnrUzDYz0-60" value="" style="shape=singleArrow;whiteSpace=wrap;html=1;arrowWidth=0.2682926829268293;arrowSize=0.475;fillColor=#66B2FF;" vertex="1" parent="1">
          <mxGeometry x="120" y="212" width="30" height="41" as="geometry" />
        </mxCell>
        <mxCell id="YrfqTWabhQCqnrUzDYz0-61" value="" style="shape=singleArrow;whiteSpace=wrap;html=1;arrowWidth=0.2682926829268293;arrowSize=0.475;direction=west;fillColor=#33FF33;" vertex="1" parent="1">
          <mxGeometry x="120" y="499" width="30" height="41" as="geometry" />
        </mxCell>
        <mxCell id="YrfqTWabhQCqnrUzDYz0-65" value="" style="shape=singleArrow;whiteSpace=wrap;html=1;arrowWidth=0.2682926829268293;arrowSize=0.475;direction=north;fillColor=#66B2FF;" vertex="1" parent="1">
          <mxGeometry x="328.02" y="504.5" width="41" height="30" as="geometry" />
        </mxCell>
        <mxCell id="YrfqTWabhQCqnrUzDYz0-67" value="" style="shape=singleArrow;whiteSpace=wrap;html=1;arrowWidth=0.2682926829268293;arrowSize=0.475;fillColor=#66B2FF;" vertex="1" parent="1">
          <mxGeometry x="260" y="215.5" width="30" height="41" as="geometry" />
        </mxCell>
        <mxCell id="YrfqTWabhQCqnrUzDYz0-68" value="" style="shape=singleArrow;whiteSpace=wrap;html=1;arrowWidth=0.2682926829268293;arrowSize=0.475;direction=west;fillColor=#33FF33;" vertex="1" parent="1">
          <mxGeometry x="260" y="374" width="30" height="41" as="geometry" />
        </mxCell>
        <mxCell id="YrfqTWabhQCqnrUzDYz0-69" value="" style="shape=singleArrow;whiteSpace=wrap;html=1;arrowWidth=0.2682926829268293;arrowSize=0.475;fillColor=#66B2FF;" vertex="1" parent="1">
          <mxGeometry x="400" y="179" width="30" height="41" as="geometry" />
        </mxCell>
        <mxCell id="YrfqTWabhQCqnrUzDYz0-70" value="" style="shape=singleArrow;whiteSpace=wrap;html=1;arrowWidth=0.2682926829268293;arrowSize=0.475;direction=west;fillColor=#33FF33;" vertex="1" parent="1">
          <mxGeometry x="400" y="334.5" width="30" height="41" as="geometry" />
        </mxCell>
        <mxCell id="YrfqTWabhQCqnrUzDYz0-71" value="" style="shape=singleArrow;whiteSpace=wrap;html=1;arrowWidth=0.2682926829268293;arrowSize=0.475;fillColor=#66B2FF;" vertex="1" parent="1">
          <mxGeometry x="589.02" y="252" width="30" height="41" as="geometry" />
        </mxCell>
        <mxCell id="YrfqTWabhQCqnrUzDYz0-72" value="" style="shape=singleArrow;whiteSpace=wrap;html=1;arrowWidth=0.2682926829268293;arrowSize=0.475;fillColor=#66B2FF;" vertex="1" parent="1">
          <mxGeometry x="739.02" y="215.5" width="30" height="41" as="geometry" />
        </mxCell>
        <mxCell id="YrfqTWabhQCqnrUzDYz0-73" value="" style="shape=doubleArrow;whiteSpace=wrap;html=1;direction=south;fillColor=#66B2FF;" vertex="1" parent="1">
          <mxGeometry x="799.02" y="156.75" width="39.5" height="40.5" as="geometry" />
        </mxCell>
        <mxCell id="YrfqTWabhQCqnrUzDYz0-75" value="" style="shape=singleArrow;whiteSpace=wrap;html=1;arrowWidth=0.2682926829268293;arrowSize=0.475;direction=west;fillColor=#66B2FF;" vertex="1" parent="1">
          <mxGeometry x="859.5" y="216.5" width="30" height="41" as="geometry" />
        </mxCell>
        <mxCell id="YrfqTWabhQCqnrUzDYz0-76" value="" style="shape=singleArrow;whiteSpace=wrap;html=1;arrowWidth=0.2682926829268293;arrowSize=0.475;fillColor=#66B2FF;" vertex="1" parent="1">
          <mxGeometry x="730" y="429" width="30" height="41" as="geometry" />
        </mxCell>
        <mxCell id="YrfqTWabhQCqnrUzDYz0-77" value="" style="shape=singleArrow;whiteSpace=wrap;html=1;arrowWidth=0.2682926829268293;arrowSize=0.475;fillColor=#66B2FF;" vertex="1" parent="1">
          <mxGeometry x="880" y="429" width="30" height="41" as="geometry" />
        </mxCell>
        <mxCell id="YrfqTWabhQCqnrUzDYz0-78" value="" style="shape=singleArrow;whiteSpace=wrap;html=1;arrowWidth=0.2682926829268293;arrowSize=0.475;direction=north;fillColor=#66B2FF;" vertex="1" parent="1">
          <mxGeometry x="939.5" y="387" width="41" height="30" as="geometry" />
        </mxCell>
        <mxCell id="YrfqTWabhQCqnrUzDYz0-79" value="" style="shape=singleArrow;whiteSpace=wrap;html=1;arrowWidth=0.2682926829268293;arrowSize=0.475;direction=north;fillColor=#66B2FF;" vertex="1" parent="1">
          <mxGeometry x="939.5" y="279" width="41" height="30" as="geometry" />
        </mxCell>
        <mxCell id="YrfqTWabhQCqnrUzDYz0-80" value="" style="shape=singleArrow;whiteSpace=wrap;html=1;arrowWidth=0.2682926829268293;arrowSize=0.475;direction=south;fillColor=#33FF33;" vertex="1" parent="1">
          <mxGeometry x="798.5" y="287.5" width="41" height="30" as="geometry" />
        </mxCell>
        <mxCell id="YrfqTWabhQCqnrUzDYz0-83" value="" style="shape=singleArrow;whiteSpace=wrap;html=1;arrowWidth=0.2682926829268293;arrowSize=0.475;direction=west;fillColor=#33FF33;" vertex="1" parent="1">
          <mxGeometry x="730" y="330" width="30" height="41" as="geometry" />
        </mxCell>
        <mxCell id="YrfqTWabhQCqnrUzDYz0-84" value="" style="shape=singleArrow;whiteSpace=wrap;html=1;arrowWidth=0.2682926829268293;arrowSize=0.475;direction=west;fillColor=#33FF33;" vertex="1" parent="1">
          <mxGeometry x="589.02" y="339" width="30" height="41" as="geometry" />
        </mxCell>
        <mxCell id="YrfqTWabhQCqnrUzDYz0-85" value="Internet" style="image;aspect=fixed;perimeter=ellipsePerimeter;html=1;align=center;shadow=0;dashed=0;spacingTop=3;image=img/lib/active_directory/internet_globe.svg;" vertex="1" parent="1">
          <mxGeometry x="858.27" y="602.38" width="59" height="59" as="geometry" />
        </mxCell>
        <mxCell id="YrfqTWabhQCqnrUzDYz0-86" value="emails" style="sketch=0;points=[[0,0,0],[0.25,0,0],[0.5,0,0],[0.75,0,0],[1,0,0],[0,1,0],[0.25,1,0],[0.5,1,0],[0.75,1,0],[1,1,0],[0,0.25,0],[0,0.5,0],[0,0.75,0],[1,0.25,0],[1,0.5,0],[1,0.75,0]];outlineConnect=0;fontColor=#232F3E;gradientColor=#4D72F3;gradientDirection=north;fillColor=#3334B9;strokeColor=#ffffff;dashed=0;verticalLabelPosition=bottom;verticalAlign=top;align=center;html=1;fontSize=12;fontStyle=0;aspect=fixed;shape=mxgraph.aws4.resourceIcon;resIcon=mxgraph.aws4.simple_email_service;" vertex="1" parent="1">
          <mxGeometry x="942.75" y="607.13" width="57.5" height="57.5" as="geometry" />
        </mxCell>
      </root>
    </mxGraphModel>
  </diagram>
</mxfile>
